<svg id="my-svg" width="100%" xmlns="http://www.w3.org/2000/svg" xmlns:xlink="http://www.w3.org/1999/xlink" class="railroad-diagram" style="max-width: 934.188px; background-color: transparent;" viewBox="0 0 934.1875 442.5" role="graphics-document document" aria-roledescription="railroadEbnf"><style>#my-svg{font-family:"trebuchet ms",verdana,arial,sans-serif;font-size:16px;fill:#333;}@keyframes edge-animation-frame{from{stroke-dashoffset:0;}}@keyframes dash{to{stroke-dashoffset:0;}}#my-svg .edge-animation-slow{stroke-dasharray:9,5!important;stroke-dashoffset:900;animation:dash 50s linear infinite;stroke-linecap:round;}#my-svg .edge-animation-fast{stroke-dasharray:9,5!important;stroke-dashoffset:900;animation:dash 20s linear infinite;stroke-linecap:round;}#my-svg .error-icon{fill:#552222;}#my-svg .error-text{fill:#552222;stroke:#552222;}#my-svg .edge-thickness-normal{stroke-width:1px;}#my-svg .edge-thickness-thick{stroke-width:3.5px;}#my-svg .edge-pattern-solid{stroke-dasharray:0;}#my-svg .edge-thickness-invisible{stroke-width:0;fill:none;}#my-svg .edge-pattern-dashed{stroke-dasharray:3;}#my-svg .edge-pattern-dotted{stroke-dasharray:2;}#my-svg .marker{fill:#333333;stroke:#333333;}#my-svg .marker.cross{stroke:#333333;}#my-svg svg{font-family:"trebuchet ms",verdana,arial,sans-serif;font-size:16px;}#my-svg p{margin:0;}#my-svg .railroad-diagram{font-family:"trebuchet ms",verdana,arial,sans-serif;font-size:16px;}#my-svg .railroad-terminal rect{fill:#ffffde;stroke:hsl(60, 60%, 83.5294117647%);stroke-width:2px;}#my-svg .railroad-terminal text{fill:#000021;font-family:"trebuchet ms",verdana,arial,sans-serif;font-size:16px;text-anchor:middle;dominant-baseline:middle;}#my-svg .railroad-nonterminal rect{fill:#ECECFF;stroke:hsl(240, 60%, 86.2745098039%);stroke-width:2px;}#my-svg .railroad-nonterminal text{fill:#131300;font-family:"trebuchet ms",verdana,arial,sans-serif;font-size:16px;text-anchor:middle;dominant-baseline:middle;}#my-svg .railroad-line{stroke:#333333;stroke-width:2px;fill:none;}#my-svg .railroad-start circle,#my-svg .railroad-end circle{fill:#333333;}#my-svg .railroad-comment ellipse{fill:rgba(232,232,232, 0.8);stroke:hsl(80, 60%, 86.2745098039%);stroke-width:2px;}#my-svg .railroad-comment text{fill:rgb(6.3333333334, 0, 19.0000000001);font-style:italic;font-family:"trebuchet ms",verdana,arial,sans-serif;font-size:16px;text-anchor:middle;dominant-baseline:middle;}#my-svg .railroad-special rect{fill:hsl(80, 100%, 96.2745098039%);stroke:hsl(80, 60%, 86.2745098039%);stroke-width:2px;stroke-dasharray:5,3;}#my-svg .railroad-special text{fill:#131300;font-family:"trebuchet ms",verdana,arial,sans-serif;font-size:16px;text-anchor:middle;dominant-baseline:middle;}#my-svg .railroad-rule-name{font-weight:bold;fill:#333;font-family:"trebuchet ms",verdana,arial,sans-serif;font-size:16px;}#my-svg .node .neo-node{stroke:#9370DB;}#my-svg [data-look="neo"].node rect,#my-svg [data-look="neo"].cluster rect,#my-svg [data-look="neo"].node polygon{stroke:#9370DB;filter:drop-shadow(1px 2px 2px rgba(185, 185, 185, 1));}#my-svg [data-look="neo"].swimlane.cluster rect{filter:none;}#my-svg [data-look="neo"].node path{stroke:#9370DB;stroke-width:1px;}#my-svg [data-look="neo"].node .outer-path{filter:drop-shadow(1px 2px 2px rgba(185, 185, 185, 1));}#my-svg [data-look="neo"].node .neo-line path{stroke:#9370DB;filter:none;}#my-svg [data-look="neo"].node circle{stroke:#9370DB;filter:drop-shadow(1px 2px 2px rgba(185, 185, 185, 1));}#my-svg [data-look="neo"].node circle .state-start{fill:#000000;}#my-svg [data-look="neo"].icon-shape .icon{fill:#9370DB;filter:drop-shadow(1px 2px 2px rgba(185, 185, 185, 1));}#my-svg [data-look="neo"].icon-shape .icon-neo path{stroke:#9370DB;filter:drop-shadow(1px 2px 2px rgba(185, 185, 185, 1));}#my-svg :root{--mermaid-font-family:"trebuchet ms",verdana,arial,sans-serif;}</style><g/><g class="railroad-rule" transform="translate(0, 10)"><g transform="translate(173.21875, 0.5)"><g class="railroad-sequence"><g class="railroad-terminal" transform="translate(0, 0)"><rect x="0" y="0" width="93.359375" height="39" rx="10" ry="10"/><text x="46.6796875" y="19.5">comments</text></g><path class="railroad-line" d="M 93.359375 19.5 L 103.359375 19.5"/><g class="railroad-terminal" transform="translate(103.359375, 0)"><rect x="0" y="0" width="81.546875" height="39" rx="10" ry="10"/><text x="40.7734375" y="19.5">bounded</text></g><path class="railroad-line" d="M 184.90625 19.5 L 194.90625 19.5"/><g class="railroad-terminal" transform="translate(194.90625, 0)"><rect x="0" y="0" width="36.8125" height="39" rx="10" ry="10"/><text x="18.40625" y="19.5">by</text></g><path class="railroad-line" d="M 231.71875 19.5 L 241.71875 19.5"/><g class="railroad-nonterminal" transform="translate(241.71875, 0)"><rect x="0" y="0" width="192.515625" height="39"/><text x="96.2578125" y="19.5">commentBounderClause</text></g><path class="railroad-line" d="M 434.234375 19.5 L 444.234375 19.5"/><g class="railroad-nonterminal" transform="translate(444.234375, 0)"><rect x="0" y="0" width="160.078125" height="39"/><text x="80.0390625" y="19.5">orBoundedByClause</text></g><path class="railroad-line" d="M 604.3125 19.5 L 614.3125 19.5"/><g class="railroad-nonterminal" transform="translate(614.3125, 0)"><rect x="0" y="0" width="111.65625" height="39"/><text x="55.828125" y="19.5">reportClause</text></g></g></g><g class="railroad-rule-name-group"><text class="railroad-rule-name" x="0" y="20">commentsClause =</text></g><g class="railroad-start"><circle cx="153.21875" cy="20" r="5"/></g><g class="railroad-end"><circle cx="909.1875" cy="20" r="5"/></g><path class="railroad-line" d="M 158.21875 20 L 173.21875 20"/><path class="railroad-line" d="M 899.1875 20 L 904.1875 20"/></g><g class="railroad-rule" transform="translate(0, 77.5)"><g transform="translate(225.71875, 0)"><g class="railroad-sequence"><g class="railroad-nonterminal" transform="translate(0, 23.5)"><rect x="0" y="0" width="60.375" height="39"/><text x="30.1875" y="19.5">string</text></g><path class="railroad-line" d="M 60.375 43 L 70.375 43"/><g class="railroad-terminal" transform="translate(70.375, 23.5)"><rect x="0" y="0" width="46.0625" height="39" rx="10" ry="10"/><text x="23.03125" y="19.5">and</text></g><path class="railroad-line" d="M 116.4375 43 L 126.4375 43"/><g class="railroad-choice" transform="translate(126.4375, 0)"><g class="railroad-nonterminal" transform="translate(26.3046875, 0)"><rect x="0" y="0" width="60.375" height="39"/><text x="30.1875" y="19.5">string</text></g><path class="railroad-line" d="M 0 43 A 10 10 0 0 0 10 33 L 10 29.5 A 10 10 0 0 1 20 19.5 L 26.3046875 19.5"/><path class="railroad-line" d="M 86.6796875 19.5 L 92.984375 19.5 A 10 10 0 0 1 102.984375 29.5 L 102.984375 33 A 10 10 0 0 0 112.984375 43"/><g class="railroad-terminal" transform="translate(20, 47)"><rect x="0" y="0" width="72.984375" height="39" rx="10" ry="10"/><text x="36.4921875" y="19.5">lineEnd</text></g><path class="railroad-line" d="M 0 43 A 10 10 0 0 1 10 53 L 10 56.5 A 10 10 0 0 0 20 66.5 L 20 66.5"/><path class="railroad-line" d="M 92.984375 66.5 L 92.984375 66.5 A 10 10 0 0 0 102.984375 56.5 L 102.984375 53 A 10 10 0 0 1 112.984375 43"/></g></g></g><g class="railroad-rule-name-group"><text class="railroad-rule-name" x="0" y="43">commentBounderClause =</text></g><g class="railroad-start"><circle cx="205.71875" cy="43" r="5"/></g><g class="railroad-end"><circle cx="475.140625" cy="43" r="5"/></g><path class="railroad-line" d="M 210.71875 43 L 225.71875 43"/><path class="railroad-line" d="M 465.140625 43 L 470.140625 43"/></g><g class="railroad-rule" transform="translate(0, 191.5)"><g transform="translate(193.28125, 0)"><g class="railroad-repetition"><g class="railroad-sequence" transform="translate(20, 20)"><g class="railroad-terminal" transform="translate(0, 0)"><rect x="0" y="0" width="34.8125" height="39" rx="10" ry="10"/><text x="17.40625" y="19.5">or</text></g><path class="railroad-line" d="M 34.8125 19.5 L 44.8125 19.5"/><g class="railroad-nonterminal" transform="translate(44.8125, 0)"><rect x="0" y="0" width="192.515625" height="39"/><text x="96.2578125" y="19.5">commentBounderClause</text></g></g><path class="railroad-line" d="M 0 39.5 L 20 39.5"/><path class="railroad-line" d="M 257.328125 39.5 L 277.328125 39.5"/><path class="railroad-line" d="M 257.328125 39.5 A 10 10 0 0 1 267.328125 49.5 L 267.328125 69 A 10 10 0 0 1 257.328125 79 L 20 79 A 10 10 0 0 1 10 69 L 10 49.5 A 10 10 0 0 1 20 39.5"/><path class="railroad-line" d="M 0 39.5 A 10 10 0 0 0 10 29.5 L 10 10 A 10 10 0 0 1 20 0 L 257.328125 0 A 10 10 0 0 1 267.328125 10 L 267.328125 29.5 A 10 10 0 0 0 277.328125 39.5"/></g></g><g class="railroad-rule-name-group"><text class="railroad-rule-name" x="0" y="39.5">orBoundedByClause =</text></g><g class="railroad-start"><circle cx="173.28125" cy="39.5" r="5"/></g><g class="railroad-end"><circle cx="480.609375" cy="39.5" r="5"/></g><path class="railroad-line" d="M 178.28125 39.5 L 193.28125 39.5"/><path class="railroad-line" d="M 470.609375 39.5 L 475.609375 39.5"/></g><g class="railroad-rule" transform="translate(0, 298.5)"><g transform="translate(144.859375, 0)"><g class="railroad-optional"><g class="railroad-choice" transform="translate(20, 20)"><g class="railroad-terminal" transform="translate(20.7578125, 0)"><rect x="0" y="0" width="65.015625" height="39" rx="10" ry="10"/><text x="32.5078125" y="19.5">report</text></g><path class="railroad-line" d="M 0 43 A 10 10 0 0 0 10 33 L 10 29.5 A 10 10 0 0 1 20 19.5 L 20.7578125 19.5"/><path class="railroad-line" d="M 85.7734375 19.5 L 86.53125 19.5 A 10 10 0 0 1 96.53125 29.5 L 96.53125 33 A 10 10 0 0 0 106.53125 43"/><g class="railroad-terminal" transform="translate(20, 47)"><rect x="0" y="0" width="66.53125" height="39" rx="10" ry="10"/><text x="33.265625" y="19.5">redact</text></g><path class="railroad-line" d="M 0 43 A 10 10 0 0 1 10 53 L 10 56.5 A 10 10 0 0 0 20 66.5 L 20 66.5"/><path class="railroad-line" d="M 86.53125 66.5 L 86.53125 66.5 A 10 10 0 0 0 96.53125 56.5 L 96.53125 53 A 10 10 0 0 1 106.53125 43"/></g><path class="railroad-line" d="M 0 63 L 20 63"/><path class="railroad-line" d="M 126.53125 63 L 146.53125 63"/><path class="railroad-line" d="M 0 63 A 10 10 0 0 0 10 53 L 10 10 A 10 10 0 0 1 20 0 L 126.53125 0 A 10 10 0 0 1 136.53125 10 L 136.53125 53 A 10 10 0 0 0 146.53125 63"/></g></g><g class="railroad-rule-name-group"><text class="railroad-rule-name" x="0" y="63">reportClause =</text></g><g class="railroad-start"><circle cx="124.859375" cy="63" r="5"/></g><g class="railroad-end"><circle cx="301.390625" cy="63" r="5"/></g><path class="railroad-line" d="M 129.859375 63 L 144.859375 63"/><path class="railroad-line" d="M 291.390625 63 L 296.390625 63"/></g></svg>