<svg id="my-svg" width="100%" xmlns="http://www.w3.org/2000/svg" xmlns:xlink="http://www.w3.org/1999/xlink" class="railroad-diagram" style="max-width: 1382.53px; background-color: transparent;" viewBox="0 0 1382.53125 576" role="graphics-document document" aria-roledescription="railroadEbnf"><style>#my-svg{font-family:"trebuchet ms",verdana,arial,sans-serif;font-size:16px;fill:#333;}@keyframes edge-animation-frame{from{stroke-dashoffset:0;}}@keyframes dash{to{stroke-dashoffset:0;}}#my-svg .edge-animation-slow{stroke-dasharray:9,5!important;stroke-dashoffset:900;animation:dash 50s linear infinite;stroke-linecap:round;}#my-svg .edge-animation-fast{stroke-dasharray:9,5!important;stroke-dashoffset:900;animation:dash 20s linear infinite;stroke-linecap:round;}#my-svg .error-icon{fill:#552222;}#my-svg .error-text{fill:#552222;stroke:#552222;}#my-svg .edge-thickness-normal{stroke-width:1px;}#my-svg .edge-thickness-thick{stroke-width:3.5px;}#my-svg .edge-pattern-solid{stroke-dasharray:0;}#my-svg .edge-thickness-invisible{stroke-width:0;fill:none;}#my-svg .edge-pattern-dashed{stroke-dasharray:3;}#my-svg .edge-pattern-dotted{stroke-dasharray:2;}#my-svg .marker{fill:#333333;stroke:#333333;}#my-svg .marker.cross{stroke:#333333;}#my-svg svg{font-family:"trebuchet ms",verdana,arial,sans-serif;font-size:16px;}#my-svg p{margin:0;}#my-svg .railroad-diagram{font-family:"trebuchet ms",verdana,arial,sans-serif;font-size:16px;}#my-svg .railroad-terminal rect{fill:#ffffde;stroke:hsl(60, 60%, 83.5294117647%);stroke-width:2px;}#my-svg .railroad-terminal text{fill:#000021;font-family:"trebuchet ms",verdana,arial,sans-serif;font-size:16px;text-anchor:middle;dominant-baseline:middle;}#my-svg .railroad-nonterminal rect{fill:#ECECFF;stroke:hsl(240, 60%, 86.2745098039%);stroke-width:2px;}#my-svg .railroad-nonterminal text{fill:#131300;font-family:"trebuchet ms",verdana,arial,sans-serif;font-size:16px;text-anchor:middle;dominant-baseline:middle;}#my-svg .railroad-line{stroke:#333333;stroke-width:2px;fill:none;}#my-svg .railroad-start circle,#my-svg .railroad-end circle{fill:#333333;}#my-svg .railroad-comment ellipse{fill:rgba(232,232,232, 0.8);stroke:hsl(80, 60%, 86.2745098039%);stroke-width:2px;}#my-svg .railroad-comment text{fill:rgb(6.3333333334, 0, 19.0000000001);font-style:italic;font-family:"trebuchet ms",verdana,arial,sans-serif;font-size:16px;text-anchor:middle;dominant-baseline:middle;}#my-svg .railroad-special rect{fill:hsl(80, 100%, 96.2745098039%);stroke:hsl(80, 60%, 86.2745098039%);stroke-width:2px;stroke-dasharray:5,3;}#my-svg .railroad-special text{fill:#131300;font-family:"trebuchet ms",verdana,arial,sans-serif;font-size:16px;text-anchor:middle;dominant-baseline:middle;}#my-svg .railroad-rule-name{font-weight:bold;fill:#333;font-family:"trebuchet ms",verdana,arial,sans-serif;font-size:16px;}#my-svg .node .neo-node{stroke:#9370DB;}#my-svg [data-look="neo"].node rect,#my-svg [data-look="neo"].cluster rect,#my-svg [data-look="neo"].node polygon{stroke:#9370DB;filter:drop-shadow(1px 2px 2px rgba(185, 185, 185, 1));}#my-svg [data-look="neo"].swimlane.cluster rect{filter:none;}#my-svg [data-look="neo"].node path{stroke:#9370DB;stroke-width:1px;}#my-svg [data-look="neo"].node .outer-path{filter:drop-shadow(1px 2px 2px rgba(185, 185, 185, 1));}#my-svg [data-look="neo"].node .neo-line path{stroke:#9370DB;filter:none;}#my-svg [data-look="neo"].node circle{stroke:#9370DB;filter:drop-shadow(1px 2px 2px rgba(185, 185, 185, 1));}#my-svg [data-look="neo"].node circle .state-start{fill:#000000;}#my-svg [data-look="neo"].icon-shape .icon{fill:#9370DB;filter:drop-shadow(1px 2px 2px rgba(185, 185, 185, 1));}#my-svg [data-look="neo"].icon-shape .icon-neo path{stroke:#9370DB;filter:drop-shadow(1px 2px 2px rgba(185, 185, 185, 1));}#my-svg :root{--mermaid-font-family:"trebuchet ms",verdana,arial,sans-serif;}</style><g/><g class="railroad-rule" transform="translate(0, 10)"><g transform="translate(173.609375, 0)"><g class="railroad-sequence"><g class="railroad-terminal" transform="translate(0, 20)"><rect x="0" y="0" width="93.75" height="39" rx="10" ry="10"/><text x="46.875" y="19.5">identifiers</text></g><path class="railroad-line" d="M 93.75 39.5 L 103.75 39.5"/><g class="railroad-optional" transform="translate(103.75, 0)"><g class="railroad-sequence" transform="translate(20, 20)"><g class="railroad-terminal" transform="translate(0, 0)"><rect x="0" y="0" width="75.125" height="39" rx="10" ry="10"/><text x="37.5625" y="19.5">starting</text></g><path class="railroad-line" d="M 75.125 19.5 L 85.125 19.5"/><g class="railroad-terminal" transform="translate(85.125, 0)"><rect x="0" y="0" width="51.5625" height="39" rx="10" ry="10"/><text x="25.78125" y="19.5">with</text></g><path class="railroad-line" d="M 136.6875 19.5 L 146.6875 19.5"/><g class="railroad-nonterminal" transform="translate(146.6875, 0)"><rect x="0" y="0" width="210.453125" height="39"/><text x="105.2265625" y="19.5">stringOrKeywordListClause</text></g></g><path class="railroad-line" d="M 0 39.5 L 20 39.5"/><path class="railroad-line" d="M 377.140625 39.5 L 397.140625 39.5"/><path class="railroad-line" d="M 0 39.5 A 10 10 0 0 0 10 29.5 L 10 10 A 10 10 0 0 1 20 0 L 377.140625 0 A 10 10 0 0 1 387.140625 10 L 387.140625 29.5 A 10 10 0 0 0 397.140625 39.5"/></g><path class="railroad-line" d="M 500.890625 39.5 L 510.890625 39.5"/><g class="railroad-optional" transform="translate(510.890625, 0)"><g class="railroad-sequence" transform="translate(20, 20)"><g class="railroad-terminal" transform="translate(0, 0)"><rect x="0" y="0" width="94.640625" height="39" rx="10" ry="10"/><text x="47.3203125" y="19.5">containing</text></g><path class="railroad-line" d="M 94.640625 19.5 L 104.640625 19.5"/><g class="railroad-nonterminal" transform="translate(104.640625, 0)"><rect x="0" y="0" width="210.453125" height="39"/><text x="105.2265625" y="19.5">stringOrKeywordListClause</text></g></g><path class="railroad-line" d="M 0 39.5 L 20 39.5"/><path class="railroad-line" d="M 335.09375 39.5 L 355.09375 39.5"/><path class="railroad-line" d="M 0 39.5 A 10 10 0 0 0 10 29.5 L 10 10 A 10 10 0 0 1 20 0 L 335.09375 0 A 10 10 0 0 1 345.09375 10 L 345.09375 29.5 A 10 10 0 0 0 355.09375 39.5"/></g><path class="railroad-line" d="M 865.984375 39.5 L 875.984375 39.5"/><g class="railroad-nonterminal" transform="translate(875.984375, 20)"><rect x="0" y="0" width="176.28125" height="39"/><text x="88.140625" y="19.5">letterCaseStyleClause</text></g><path class="railroad-line" d="M 1052.265625 39.5 L 1062.265625 39.5"/><g class="railroad-nonterminal" transform="translate(1062.265625, 20)"><rect x="0" y="0" width="111.65625" height="39"/><text x="55.828125" y="19.5">reportClause</text></g></g></g><g class="railroad-rule-name-group"><text class="railroad-rule-name" x="0" y="39.5">identifiersClause =</text></g><g class="railroad-start"><circle cx="153.609375" cy="39.5" r="5"/></g><g class="railroad-end"><circle cx="1357.53125" cy="39.5" r="5"/></g><path class="railroad-line" d="M 158.609375 39.5 L 173.609375 39.5"/><path class="railroad-line" d="M 1347.53125 39.5 L 1352.53125 39.5"/></g><g class="railroad-rule" transform="translate(0, 97)"><g transform="translate(243.671875, 0)"><g class="railroad-sequence"><g class="railroad-choice" transform="translate(0, 20)"><g class="railroad-nonterminal" transform="translate(29.96875, 0)"><rect x="0" y="0" width="60.375" height="39"/><text x="30.1875" y="19.5">string</text></g><path class="railroad-line" d="M 0 43 A 10 10 0 0 0 10 33 L 10 29.5 A 10 10 0 0 1 20 19.5 L 29.96875 19.5"/><path class="railroad-line" d="M 90.34375 19.5 L 100.3125 19.5 A 10 10 0 0 1 110.3125 29.5 L 110.3125 33 A 10 10 0 0 0 120.3125 43"/><g class="railroad-nonterminal" transform="translate(20, 47)"><rect x="0" y="0" width="80.3125" height="39"/><text x="40.15625" y="19.5">keyword</text></g><path class="railroad-line" d="M 0 43 A 10 10 0 0 1 10 53 L 10 56.5 A 10 10 0 0 0 20 66.5 L 20 66.5"/><path class="railroad-line" d="M 100.3125 66.5 L 100.3125 66.5 A 10 10 0 0 0 110.3125 56.5 L 110.3125 53 A 10 10 0 0 1 120.3125 43"/></g><path class="railroad-line" d="M 120.3125 63 L 130.3125 63"/><g class="railroad-repetition" transform="translate(130.3125, 0)"><g class="railroad-sequence" transform="translate(20, 20)"><g class="railroad-terminal" transform="translate(0, 23.5)"><rect x="0" y="0" width="25.875" height="39" rx="10" ry="10"/><text x="12.9375" y="19.5">,</text></g><path class="railroad-line" d="M 25.875 43 L 35.875 43"/><g class="railroad-choice" transform="translate(35.875, 0)"><g class="railroad-nonterminal" transform="translate(29.96875, 0)"><rect x="0" y="0" width="60.375" height="39"/><text x="30.1875" y="19.5">string</text></g><path class="railroad-line" d="M 0 43 A 10 10 0 0 0 10 33 L 10 29.5 A 10 10 0 0 1 20 19.5 L 29.96875 19.5"/><path class="railroad-line" d="M 90.34375 19.5 L 100.3125 19.5 A 10 10 0 0 1 110.3125 29.5 L 110.3125 33 A 10 10 0 0 0 120.3125 43"/><g class="railroad-nonterminal" transform="translate(20, 47)"><rect x="0" y="0" width="80.3125" height="39"/><text x="40.15625" y="19.5">keyword</text></g><path class="railroad-line" d="M 0 43 A 10 10 0 0 1 10 53 L 10 56.5 A 10 10 0 0 0 20 66.5 L 20 66.5"/><path class="railroad-line" d="M 100.3125 66.5 L 100.3125 66.5 A 10 10 0 0 0 110.3125 56.5 L 110.3125 53 A 10 10 0 0 1 120.3125 43"/></g></g><path class="railroad-line" d="M 0 63 L 20 63"/><path class="railroad-line" d="M 176.1875 63 L 196.1875 63"/><path class="railroad-line" d="M 176.1875 63 A 10 10 0 0 1 186.1875 73 L 186.1875 116 A 10 10 0 0 1 176.1875 126 L 20 126 A 10 10 0 0 1 10 116 L 10 73 A 10 10 0 0 1 20 63"/><path class="railroad-line" d="M 0 63 A 10 10 0 0 0 10 53 L 10 10 A 10 10 0 0 1 20 0 L 176.1875 0 A 10 10 0 0 1 186.1875 10 L 186.1875 53 A 10 10 0 0 0 196.1875 63"/></g></g></g><g class="railroad-rule-name-group"><text class="railroad-rule-name" x="0" y="63">stringOrKeywordListClause =</text></g><g class="railroad-start"><circle cx="223.671875" cy="63" r="5"/></g><g class="railroad-end"><circle cx="580.171875" cy="63" r="5"/></g><path class="railroad-line" d="M 228.671875 63 L 243.671875 63"/><path class="railroad-line" d="M 570.171875 63 L 575.171875 63"/></g><g class="railroad-rule" transform="translate(0, 251)"><g transform="translate(209.484375, 0)"><g class="railroad-optional"><g class="railroad-choice" transform="translate(20, 20)"><g class="railroad-terminal" transform="translate(20.6796875, 0)"><rect x="0" y="0" width="93.34375" height="39" rx="10" ry="10"/><text x="46.671875" y="19.5">lowerCase</text></g><path class="railroad-line" d="M 0 66.5 A 10 10 0 0 0 10 56.5 L 10 29.5 A 10 10 0 0 1 20 19.5 L 20.6796875 19.5"/><path class="railroad-line" d="M 114.0234375 19.5 L 114.703125 19.5 A 10 10 0 0 1 124.703125 29.5 L 124.703125 56.5 A 10 10 0 0 0 134.703125 66.5"/><g class="railroad-terminal" transform="translate(20, 47)"><rect x="0" y="0" width="94.703125" height="39" rx="10" ry="10"/><text x="47.3515625" y="19.5">upperCase</text></g><path class="railroad-line" d="M 0 66.5 L 20 66.5"/><path class="railroad-line" d="M 114.703125 66.5 L 134.703125 66.5"/><g class="railroad-terminal" transform="translate(44.4453125, 94)"><rect x="0" y="0" width="45.8125" height="39" rx="10" ry="10"/><text x="22.90625" y="19.5">asIs</text></g><path class="railroad-line" d="M 0 66.5 A 10 10 0 0 1 10 76.5 L 10 103.5 A 10 10 0 0 0 20 113.5 L 44.4453125 113.5"/><path class="railroad-line" d="M 90.2578125 113.5 L 114.703125 113.5 A 10 10 0 0 0 124.703125 103.5 L 124.703125 76.5 A 10 10 0 0 1 134.703125 66.5"/></g><path class="railroad-line" d="M 0 86.5 L 20 86.5"/><path class="railroad-line" d="M 154.703125 86.5 L 174.703125 86.5"/><path class="railroad-line" d="M 0 86.5 A 10 10 0 0 0 10 76.5 L 10 10 A 10 10 0 0 1 20 0 L 154.703125 0 A 10 10 0 0 1 164.703125 10 L 164.703125 76.5 A 10 10 0 0 0 174.703125 86.5"/></g></g><g class="railroad-rule-name-group"><text class="railroad-rule-name" x="0" y="86.5">letterCaseStyleClause =</text></g><g class="railroad-start"><circle cx="189.484375" cy="86.5" r="5"/></g><g class="railroad-end"><circle cx="394.1875" cy="86.5" r="5"/></g><path class="railroad-line" d="M 194.484375 86.5 L 209.484375 86.5"/><path class="railroad-line" d="M 384.1875 86.5 L 389.1875 86.5"/></g><g class="railroad-rule" transform="translate(0, 432)"><g transform="translate(144.859375, 0)"><g class="railroad-optional"><g class="railroad-choice" transform="translate(20, 20)"><g class="railroad-terminal" transform="translate(20.7578125, 0)"><rect x="0" y="0" width="65.015625" height="39" rx="10" ry="10"/><text x="32.5078125" y="19.5">report</text></g><path class="railroad-line" d="M 0 43 A 10 10 0 0 0 10 33 L 10 29.5 A 10 10 0 0 1 20 19.5 L 20.7578125 19.5"/><path class="railroad-line" d="M 85.7734375 19.5 L 86.53125 19.5 A 10 10 0 0 1 96.53125 29.5 L 96.53125 33 A 10 10 0 0 0 106.53125 43"/><g class="railroad-terminal" transform="translate(20, 47)"><rect x="0" y="0" width="66.53125" height="39" rx="10" ry="10"/><text x="33.265625" y="19.5">redact</text></g><path class="railroad-line" d="M 0 43 A 10 10 0 0 1 10 53 L 10 56.5 A 10 10 0 0 0 20 66.5 L 20 66.5"/><path class="railroad-line" d="M 86.53125 66.5 L 86.53125 66.5 A 10 10 0 0 0 96.53125 56.5 L 96.53125 53 A 10 10 0 0 1 106.53125 43"/></g><path class="railroad-line" d="M 0 63 L 20 63"/><path class="railroad-line" d="M 126.53125 63 L 146.53125 63"/><path class="railroad-line" d="M 0 63 A 10 10 0 0 0 10 53 L 10 10 A 10 10 0 0 1 20 0 L 126.53125 0 A 10 10 0 0 1 136.53125 10 L 136.53125 53 A 10 10 0 0 0 146.53125 63"/></g></g><g class="railroad-rule-name-group"><text class="railroad-rule-name" x="0" y="63">reportClause =</text></g><g class="railroad-start"><circle cx="124.859375" cy="63" r="5"/></g><g class="railroad-end"><circle cx="301.390625" cy="63" r="5"/></g><path class="railroad-line" d="M 129.859375 63 L 144.859375 63"/><path class="railroad-line" d="M 291.390625 63 L 296.390625 63"/></g></svg>